<svg viewBox="0 0 35 28" fill="none" xmlns="http://www.w3.org/2000/svg">
<path d="M17.5172 21.2189H19.1859C20.4496 21.2189 21.5753 21.0267 22.5627 20.6425C23.55 20.2583 24.3795 19.73 25.0509 19.0576C25.742 18.3852 26.2653 17.5879 26.611 16.6754C26.9861 15.734 27.1639 14.7158 27.1639 13.6112C27.1639 12.5065 26.9763 11.5172 26.611 10.5758C26.2357 9.63445 25.7124 8.82757 25.0114 8.1552C24.3399 7.48283 23.5106 6.95448 22.5232 6.57032C21.5359 6.186 20.42 5.99391 19.1859 5.99391H17.5172V21.2189ZM10.25 0H21.0126C22.9182 0 24.6954 0.374649 26.3542 1.11427C28.0327 1.86357 29.4941 2.86253 30.7284 4.11115C31.9923 5.34073 32.9796 6.78159 33.7004 8.4434C34.4212 10.0763 34.7767 11.7957 34.7767 13.6016C34.7767 15.4074 34.4212 17.0981 33.7004 18.7597C33.0093 20.3927 32.0317 21.8432 30.7678 23.092C29.5336 24.3406 28.0723 25.3396 26.3937 26.0889C24.735 26.8382 22.9478 27.2031 21.0126 27.2031H10.25V0Z" fill="#0083F0"/>
<path d="M0 10.8259C0 10.2581 0.107535 9.72806 0.332373 9.22646C0.557225 8.70612 0.860265 8.25183 1.25129 7.87326C1.64231 7.49483 2.092 7.20149 2.61011 6.98386C3.14777 6.76609 3.71476 6.66211 4.30131 6.66211C4.88785 6.66211 5.43528 6.76609 5.9534 6.98386C6.49111 7.20149 6.96029 7.49483 7.3513 7.87326C7.74231 8.25183 8.04532 8.70612 8.2703 9.22646C8.49514 9.72806 8.60265 10.2581 8.60265 10.8259C8.60265 11.3936 8.49514 11.9424 8.2703 12.4629C8.04532 12.9645 7.74231 13.3997 7.3513 13.7783C6.96029 14.1567 6.49111 14.4502 5.9534 14.6678C5.43528 14.8855 4.88785 14.9896 4.30131 14.9896C3.71476 14.9896 3.14777 14.8855 2.61011 14.6678C2.092 14.4502 1.64231 14.1567 1.25129 13.7783C0.860265 13.3997 0.557225 12.9645 0.332373 12.4629C0.107535 11.9424 0 11.3936 0 10.8259Z" fill="#0083F0"/>
<path d="M0 22.9478C0 22.3673 0.107535 21.8257 0.332373 21.3129C0.557225 20.7809 0.860265 20.3166 1.25129 19.9296C1.64231 19.5427 2.092 19.2429 2.61011 19.0204C3.14777 18.7978 3.71476 18.6914 4.30131 18.6914C4.88785 18.6914 5.43528 18.7978 5.9534 19.0204C6.49111 19.2429 6.96029 19.5427 7.3513 19.9296C7.74231 20.3166 8.04532 20.7809 8.2703 21.3129C8.49514 21.8257 8.60265 22.3673 8.60265 22.9478C8.60265 23.5281 8.49514 24.0893 8.2703 24.6212C8.04532 25.1339 7.74231 25.5789 7.3513 25.9658C6.96029 26.3527 6.49111 26.6527 5.9534 26.8752C5.43528 27.0976 4.88785 27.204 4.30131 27.204C3.71476 27.204 3.14777 27.0976 2.61011 26.8752C2.092 26.6527 1.64231 26.3527 1.25129 25.9658C0.860265 25.5789 0.557225 25.1339 0.332373 24.6212C0.107535 24.0893 0 23.5281 0 22.9478Z" fill="#0083F0"/>
</svg>
