<svg width="24" viewBox="0 0 24 24" fill="currentColor" xmlns="http://www.w3.org/2000/svg">
<path d="M12.058 19.9999C9.83598 19.9999 7.94698 19.2219 6.39098 17.6659C4.83498 16.1099 4.05732 14.2212 4.05798 11.9999C4.05798 10.3532 4.52898 8.84156 5.47098 7.4649C6.41365 6.0869 7.75032 5.0959 9.48098 4.4919C9.68498 4.42056 9.86365 4.4019 10.017 4.4359C10.1703 4.4699 10.2973 4.53623 10.398 4.6349C10.4987 4.73356 10.5627 4.86023 10.59 5.0149C10.6167 5.17023 10.5957 5.33323 10.527 5.5039C10.3977 5.8219 10.3037 6.14556 10.245 6.4749C10.1863 6.80423 10.1573 7.1459 10.158 7.4999C10.158 9.2819 10.779 10.7942 12.021 12.0369C13.2637 13.2789 14.776 13.8999 16.558 13.8999C17.0233 13.8999 17.449 13.8506 17.835 13.7519C18.2216 13.6532 18.551 13.5732 18.823 13.5119C18.9683 13.4852 19.1013 13.4886 19.222 13.5219C19.3427 13.5552 19.44 13.6139 19.514 13.6979C19.5907 13.7812 19.6427 13.8839 19.67 14.0059C19.6973 14.1279 19.6816 14.2669 19.623 14.4229C19.1463 16.0562 18.212 17.3939 16.82 18.4359C15.428 19.4779 13.8407 19.9992 12.058 19.9999Z" fill="currentColor"/>
</svg>
